# xmcd
#
# Track frame offsets: 
#        150
#        25464
#        27653
#        48851
#        66291
#        96123
#        118154
#        146003
#        168457
#        187426
#        212537
#        241823
#        259711
#
# Disc length: 3489 seconds
#
# Revision: 0
# Processed by: cddbd v1.5.2PL0 Copyright (c) Steve Scherf et al.
# Submitted via: ExactAudioCopyFreeDBPlugin 1.0
#
DISCID=c30d9f0d
DTITLE=Walter Trout - Battle Scars
DYEAR=2015
DGENRE=Blues
TTITLE0=Almost Gone
TTITLE1=Omaha Prelude
TTITLE2=Omaha
TTITLE3=Tomorrow Seems So Far Away
TTITLE4=Please Take Me Home
TTITLE5=Playin' Hideaway
TTITLE6=Haunted By The Night
TTITLE7=Fly Away
TTITLE8=Move On
TTITLE9=My Ship Came In
TTITLE10=Cold, Cold Ground
TTITLE11=Gonna Live Again
TTITLE12=Sammy, Sammy
EXTD=
EXTT0=
EXTT1=
EXTT2=
EXTT3=
EXTT4=
EXTT5=
EXTT6=
EXTT7=
EXTT8=
EXTT9=
EXTT10=
EXTT11=
EXTT12=
PLAYORDER=
